<svg width="60" height="60" viewBox="0 0 60 60" fill="none" xmlns="http://www.w3.org/2000/svg">
<path d="M0 5C0 2.23858 2.23858 0 5 0H55C57.7614 0 60 2.23858 60 5V55C60 57.7614 57.7614 60 55 60H5C2.23858 60 0 57.7614 0 55V5Z" fill="white"/>
<path fill-rule="evenodd" clip-rule="evenodd" d="M29.9552 22.7571C37.3177 22.7571 43.3334 28.6699 43.3334 35.9065C43.3334 43.0548 37.3177 48.9677 29.9552 48.9677C22.5927 48.9677 16.6667 43.0548 16.6667 35.9065C16.6667 28.6699 22.5927 22.7571 29.9552 22.7571ZM19.9889 24.9634C19.9889 24.9634 20.7969 24.2573 21.5152 23.7278C22.2335 23.1983 23.0416 22.7571 23.0416 22.7571C23.0416 22.7571 23.1314 16.403 23.0416 15.4322C23.0416 14.5497 23.8497 13.7554 24.8373 13.7554C25.9148 13.7554 34.265 13.7554 35.073 13.7554C35.9709 13.7554 36.8688 14.5497 36.8688 15.6087C36.8688 16.6677 36.8688 18.4328 36.8688 18.4328L40.0113 18.521C40.0113 18.521 40.0113 17.3737 40.0113 15.4322C40.0113 13.4024 38.3054 10.6667 35.073 10.6667C31.7509 10.6667 28.6084 10.6667 25.1965 10.6667C21.6948 10.6667 19.8991 13.2259 19.8991 15.5205C19.8991 17.9033 19.9889 24.9634 19.9889 24.9634ZM29.9552 28.0521C34.3547 28.0521 37.9462 31.5822 37.9462 35.9065C37.9462 40.1426 34.3547 43.6726 29.9552 43.6726C25.6454 43.6726 22.054 40.1426 22.054 35.9065C22.054 31.5822 25.6454 28.0521 29.9552 28.0521ZM29.9552 31.4939C31.4816 31.4939 32.7386 32.6412 32.7386 34.1415C32.7386 35.024 32.1999 35.9065 31.5714 36.3478V40.2308H28.4288V36.3478C27.7105 35.9065 27.2616 35.024 27.2616 34.1415C27.2616 32.6412 28.5186 31.4939 29.9552 31.4939ZM29.9552 25.8459C35.6118 25.8459 40.1909 30.3467 40.1909 35.9065C40.1909 41.3781 35.6118 45.8789 29.9552 45.8789C24.2986 45.8789 19.7195 41.3781 19.7195 35.9065C19.7195 30.3467 24.2986 25.8459 29.9552 25.8459Z" fill="#3BBBBC"/>
</svg>
