<svg width="60" height="60" viewBox="0 0 60 60" fill="none" xmlns="http://www.w3.org/2000/svg">
<path d="M0 5C0 2.23858 2.23858 0 5 0H55C57.7614 0 60 2.23858 60 5V55C60 57.7614 57.7614 60 55 60H5C2.23858 60 0 57.7614 0 55V5Z" fill="white"/>
<rect x="14" y="13.3333" width="33.3333" height="33.3333" fill="#F7DF1D"/>
<path d="M43.3075 33.7805C43.0767 33.187 42.1194 32 40.1367 32C37.6583 32 36.7107 33.6352 36.7472 35.0523C36.7836 36.4695 37.4761 37.5596 38.9339 38.1773C39.0995 38.2474 39.2636 38.3152 39.4245 38.3817C40.6807 38.9006 41.7403 39.3383 41.7403 40.1758C41.7403 41.1206 40.6469 41.2659 40.2096 41.2659C39.7722 41.2659 39.1162 41.2296 38.5695 40.7209C38.1321 40.3139 37.9256 40.0426 37.877 39.9578L36.0911 41.0116C36.3705 41.7747 37.5854 43.3008 40.2096 43.3008C43.4897 43.3008 44 41.1569 44 40.1758C44 39.1947 43.8542 37.8139 41.5581 36.8328C39.262 35.8517 39.0068 35.561 39.0068 34.9433C39.0068 34.3256 39.4442 33.9259 40.3189 33.9622C41.1207 33.9955 41.5581 34.907 41.5581 34.907L43.3075 33.7805Z" fill="black"/>
<path d="M32.5194 32.109H34.8155V40.1395C34.8155 41.9927 33.6492 43.3008 31.3166 43.3008C29.4506 43.3008 28.328 41.9685 28 41.3023L29.8223 40.1395C29.9681 40.5271 30.4711 41.3023 31.3166 41.3023C32.3736 41.3023 32.5194 40.4665 32.5194 40.2485V32.109Z" fill="black"/>
</svg>
