<svg width="16" height="16" viewBox="0 0 16 16" fill="none" xmlns="http://www.w3.org/2000/svg">
<path d="M8 1.6C4.46537 1.6 1.6 4.46537 1.6 8C1.6 11.5346 4.46537 14.4 8 14.4C11.5346 14.4 14.4 11.5346 14.4 8C14.4 4.46537 11.5346 1.6 8 1.6ZM0 8C0 3.58159 3.58159 0 8 0C12.4184 0 16 3.58159 16 8C16 12.4184 12.4184 16 8 16C3.58159 16 0 12.4184 0 8Z" fill="#333333"/>
<path d="M11.7657 5.83441C11.9104 5.97917 11.9999 6.17914 11.9999 6.4C11.9999 6.62086 11.9104 6.82085 11.7657 6.96561L7.76567 10.9656C7.62091 11.1103 7.42094 11.1998 7.20008 11.1998C6.97922 11.1998 6.77923 11.1103 6.63447 10.9656L4.23447 8.56561C4.08378 8.41994 3.99023 8.21599 3.99023 7.99017C3.99023 7.54835 4.34841 7.19017 4.79023 7.19017C5.01603 7.19017 5.21998 7.28372 5.36545 7.43417L7.20008 9.2688L10.6345 5.83439C10.7793 5.68967 10.9792 5.60016 11.2001 5.60016C11.4209 5.60016 11.6209 5.68967 11.7657 5.83439L11.7657 5.83441Z" fill="#333333"/>
</svg>
