<svg width="12" height="16" viewBox="0 0 12 16" fill="none" xmlns="http://www.w3.org/2000/svg">
<path fill-rule="evenodd" clip-rule="evenodd" d="M5.55116 5.05069C8.6268 5.05069 11.1398 7.52074 11.1398 10.5438C11.1398 13.53 8.6268 16 5.55116 16C2.47552 16 0 13.53 0 10.5438C0 7.52074 2.47552 5.05069 5.55116 5.05069ZM1.38779 5.97235C1.38779 5.97235 1.72536 5.67742 2.02542 5.45622C2.32549 5.23502 2.66306 5.05069 2.66306 5.05069C2.66306 5.05069 2.70056 2.39631 2.66306 1.99078C2.66306 1.62212 3.00063 1.29032 3.41321 1.29032C3.86331 1.29032 7.35153 1.29032 7.68911 1.29032C8.06418 1.29032 8.43926 1.62212 8.43926 2.06452C8.43926 2.50691 8.43926 3.24424 8.43926 3.24424L9.75204 3.28111C9.75204 3.28111 9.75204 2.80184 9.75204 1.99078C9.75204 1.14286 9.03939 0 7.68911 0C6.30132 0 4.98854 0 3.56324 0C2.10044 0 1.35028 1.06912 1.35028 2.02765C1.35028 3.02304 1.38779 5.97235 1.38779 5.97235ZM5.55116 7.26267C7.38904 7.26267 8.88936 8.73733 8.88936 10.5438C8.88936 12.3134 7.38904 13.788 5.55116 13.788C3.75078 13.788 2.25047 12.3134 2.25047 10.5438C2.25047 8.73733 3.75078 7.26267 5.55116 7.26267ZM5.55116 8.70046C6.18879 8.70046 6.7139 9.17972 6.7139 9.80645C6.7139 10.1751 6.48885 10.5438 6.2263 10.7281V12.3502H4.91353V10.7281C4.61346 10.5438 4.42592 10.1751 4.42592 9.80645C4.42592 9.17972 4.95103 8.70046 5.55116 8.70046ZM5.55116 6.34101C7.91415 6.34101 9.82705 8.2212 9.82705 10.5438C9.82705 12.8295 7.91415 14.7097 5.55116 14.7097C3.18817 14.7097 1.27527 12.8295 1.27527 10.5438C1.27527 8.2212 3.18817 6.34101 5.55116 6.34101Z" fill="white"/>
</svg>
