<svg width="60" height="60" viewBox="0 0 60 60" fill="none" xmlns="http://www.w3.org/2000/svg">
<path d="M0 5C0 2.23858 2.23858 0 5 0H55C57.7614 0 60 2.23858 60 5V55C60 57.7614 57.7614 60 55 60H5C2.23858 60 0 57.7614 0 55V5Z" fill="white"/>
<path d="M17.7691 20.6423C17.7816 20.404 17.8491 20.3525 17.9619 20.2664C17.9778 20.2542 17.9947 20.2414 18.0124 20.2272L24.7256 17.0209L18.0554 13.6142C17.855 13.4997 17.8264 13.3995 17.8264 13.2707V11.8823C17.8264 11.7248 17.8693 11.596 18.0124 11.5101C18.1556 11.4242 20.7607 10.1217 20.8895 10.0644C21.0183 10.0072 21.1901 10.0072 21.3046 10.0644C21.3962 10.1102 27.1351 12.9558 29.993 14.3728C32.7794 12.9653 38.3837 10.1331 38.5097 10.0644C38.6671 9.97853 38.8818 9.97853 39.0393 10.0644C39.1967 10.1503 41.6301 11.367 41.8591 11.4815C42.0881 11.596 42.0881 11.6962 42.0881 11.8536V13.1991C42.0881 13.4396 41.9902 13.4984 41.8497 13.5826C41.8497 13.5826 36.3736 16.4273 35.2032 17.0352L41.9736 20.2844C42.1454 20.3703 42.1597 20.4705 42.1597 20.6136V22.045C42.1597 22.2883 42.0452 22.3599 41.9164 22.4315C40.9492 22.9688 39.9315 23.3923 38.9677 23.9344C38.7645 24.0487 38.6626 24.0052 38.4723 23.924C38.4482 23.9137 38.4226 23.9028 38.3952 23.8915C38.2005 23.8113 32.7126 21.0144 29.993 19.626C27.2686 21.0049 21.7598 23.7884 21.5193 23.8915C21.2311 24.015 21.1271 23.9674 20.9802 23.9002C20.9766 23.8986 20.973 23.8969 20.9694 23.8953C20.9667 23.894 20.9639 23.8927 20.9611 23.8915C19.5661 23.2574 19.7897 23.3559 17.9695 22.4458C17.7691 22.3456 17.7691 22.2311 17.7691 22.1166C17.7691 22.0936 17.7685 22.0313 17.7677 21.9444C17.7645 21.5982 17.7577 20.8596 17.7691 20.6423Z" fill="#243947"/>
<path d="M17.3683 29.0444C17.1298 29.2257 16.6555 29.7658 16.667 30.4758C16.6788 31.2102 16.671 41.9731 16.668 46.1741V46.1742L16.668 46.1744C16.6674 47.0496 16.667 47.6399 16.667 47.7954C16.667 48.6971 17.3826 49.6418 18.3273 49.6562C19.272 49.6705 40.7569 49.6705 41.6444 49.6562C42.5318 49.6418 43.3334 48.8832 43.3334 47.9385V30.4615C43.3334 29.8317 42.9326 29.2448 42.7322 29.0301C42.7322 29.0301 42.285 28.6293 41.5402 28.6293C40.7955 28.6293 18.4991 28.6293 18.4991 28.6293C17.9217 28.6293 17.3683 29.0444 17.3683 29.0444Z" fill="#243947"/>
<path fill-rule="evenodd" clip-rule="evenodd" d="M20.6849 14.2255C20.9205 14.247 21.0942 14.4555 21.0726 14.6912L19.7871 28.7705C19.7656 29.0062 19.5571 29.1798 19.3215 29.1582C19.0858 29.1367 18.9122 28.9282 18.9337 28.6926L20.2192 14.6133C20.2407 14.3776 20.4492 14.204 20.6849 14.2255Z" fill="#243947"/>
<path fill-rule="evenodd" clip-rule="evenodd" d="M20.3751 22.6402C20.5951 22.7273 20.7028 22.9764 20.6157 23.1964L18.1671 29.379C18.08 29.5991 17.8309 29.7068 17.6109 29.6196C17.3909 29.5325 17.2832 29.2835 17.3703 29.0635L19.8189 22.8808C19.906 22.6608 20.155 22.5531 20.3751 22.6402Z" fill="#243947"/>
<path fill-rule="evenodd" clip-rule="evenodd" d="M39.4606 14.2255C39.225 14.247 39.0514 14.4555 39.0729 14.6912L40.3584 28.7705C40.3799 29.0062 40.5884 29.1798 40.8241 29.1582C41.0597 29.1367 41.2333 28.9282 41.2118 28.6926L39.9263 14.6133C39.9048 14.3776 39.6963 14.204 39.4606 14.2255Z" fill="#243947"/>
<path fill-rule="evenodd" clip-rule="evenodd" d="M39.7705 22.6402C39.5504 22.7273 39.4427 22.9764 39.5298 23.1964L41.9784 29.379C42.0656 29.5991 42.3146 29.7068 42.5346 29.6196C42.7546 29.5325 42.8623 29.2835 42.7752 29.0635L40.3266 22.8808C40.2395 22.6608 39.9905 22.5531 39.7705 22.6402Z" fill="#243947"/>
<path d="M21.1327 10.7654L19.0429 11.7531C21.71 13.0795 27.0901 15.7609 27.2733 15.8754C27.5023 16.0185 27.4307 16.448 27.2446 16.5338C27.0958 16.6025 21.7052 19.3298 19.0286 20.6848L21.1184 21.7297C23.9334 20.3222 29.595 17.4871 29.7209 17.407C29.8784 17.3068 30.0931 17.3354 30.2362 17.407C30.3507 17.4642 35.9808 20.3317 38.7815 21.7583L40.9142 20.6991C38.3187 19.3918 33.0617 16.7428 32.7984 16.6054C32.4692 16.4336 32.5121 16.0329 32.7984 15.8897C33.0274 15.7752 38.3521 13.1224 40.9858 11.8103L38.7815 10.7511C36.0094 12.1682 30.4252 15.0223 30.2648 15.1025C30.0644 15.2027 29.9213 15.174 29.7782 15.1025C29.6637 15.0452 23.9668 12.1872 21.1327 10.7654Z" fill="#01D8A2"/>
<path d="M18.5276 13.1131V12.3975L26.2284 16.2335L25.5687 16.6057L18.5276 13.1131Z" fill="#01D8A2"/>
<path d="M41.4578 13.0845V12.3688L33.757 16.2049L34.4166 16.577L41.4578 13.0845Z" fill="#0AAB82"/>
<path d="M18.5564 21.9592V21.3007L20.7464 22.4315V23.0756L18.5564 21.9592Z" fill="#00D8A2"/>
<path d="M21.4768 23.0756V22.4457L29.6499 18.3091V18.9961L21.4768 23.0756Z" fill="#0AAB82"/>
<path d="M30.3655 18.9815V18.2944L38.4384 22.3882V23.0895L30.3655 18.9815Z" fill="#02D8A4"/>
<path d="M39.1536 23.0898V22.4028L41.4294 21.2433V21.9304L39.1536 23.0898Z" fill="#0AAB82"/>
<path d="M17.3113 47.8812V32.5226L42.6895 32.5369V47.8669C42.6895 48.3965 42.303 49.0406 41.7019 49.0263C41.1007 49.012 18.943 49.0263 18.3991 49.0263C17.8552 49.0263 17.3113 48.511 17.3113 47.8812Z" fill="white"/>
<path fill-rule="evenodd" clip-rule="evenodd" d="M38.9533 41.125L39.4257 41.3827C39.316 41.5879 38.9448 41.9982 38.3379 41.9982C37.5792 41.9982 37.1355 41.4829 37.1355 40.6956C37.1355 39.9084 37.7367 39.5219 38.3092 39.5219C38.8818 39.5219 39.5402 39.9084 39.4829 40.8245H37.6937C37.708 41.0344 37.8569 41.4543 38.3379 41.4543C38.7959 41.4543 38.9533 41.125 38.9533 41.125ZM37.7224 40.438H38.8818C38.8675 40.2996 38.7329 40.0229 38.3092 40.0229C37.8855 40.0229 37.7414 40.2996 37.7224 40.438Z" fill="#243947"/>
<path d="M40.514 41.9123H39.9128V39.5792H40.4568V39.937C40.5474 39.7986 40.8003 39.5219 41.0866 39.5219C41.3728 39.5219 41.5112 39.5887 41.5446 39.6221L41.3156 40.0945C41.2631 40.0801 41.1095 40.0601 40.9148 40.0945C40.6715 40.1374 40.514 40.395 40.514 40.5668V41.9123Z" fill="#243947"/>
<path fill-rule="evenodd" clip-rule="evenodd" d="M36.2917 41.125L36.7641 41.3826C36.6543 41.5878 36.2831 41.9981 35.6762 41.9981C34.9176 41.9981 34.4739 41.4828 34.4739 40.6956C34.4739 39.9083 35.0751 39.5219 35.6476 39.5219C36.2202 39.5219 36.8786 39.9083 36.8213 40.8244H35.0321C35.0464 41.0343 35.1953 41.4542 35.6762 41.4542C36.1343 41.4542 36.2917 41.125 36.2917 41.125ZM35.0607 40.4379H36.2202C36.2058 40.2996 36.0713 40.0228 35.6476 40.0228C35.2239 40.0228 35.0798 40.2996 35.0607 40.4379Z" fill="#243947"/>
<path d="M32.5989 40.0947V39.5937H32.9853V38.8637H33.5722V39.5937H34.1591V40.0947H33.5722V41.0823C33.5722 41.3114 33.744 41.4259 33.8585 41.4259C33.9501 41.4259 34.0493 41.3972 34.0875 41.3829L34.2163 41.9125C34.0875 41.9984 33.7478 42.045 33.5006 41.9698C33.1714 41.8696 32.9853 41.6119 32.9853 41.2112V40.0947H32.5989Z" fill="#243947"/>
<path fill-rule="evenodd" clip-rule="evenodd" d="M31.782 41.125L32.2543 41.3826C32.1446 41.5878 31.7734 41.9981 31.1665 41.9981C30.4078 41.9981 29.9641 41.4828 29.9641 40.6956C29.9641 39.9083 30.5653 39.5219 31.1378 39.5219C31.7104 39.5219 32.3688 39.9083 32.3116 40.8244H30.5223C30.5367 41.0343 30.6855 41.4542 31.1665 41.4542C31.6245 41.4542 31.782 41.125 31.782 41.125ZM30.551 40.4379H31.7104C31.6961 40.2996 31.5615 40.0228 31.1378 40.0228C30.7142 40.0228 30.5701 40.2996 30.551 40.4379Z" fill="#243947"/>
<path fill-rule="evenodd" clip-rule="evenodd" d="M27.2024 42.9428H27.7893V41.6259C27.8608 41.7404 28.0612 41.9981 28.5193 41.9981C28.9916 41.9981 29.6214 41.6116 29.6214 40.7242C29.6214 39.8367 29.0202 39.5075 28.5193 39.5075C28.1185 39.5075 27.8465 39.7222 27.7606 39.8654V39.5791H27.2024V42.9428ZM27.7749 40.7385C27.7749 41.0677 27.961 41.4255 28.4191 41.4255C28.8771 41.4255 29.0059 41.0248 29.0059 40.7528C29.0059 40.4808 28.8485 40.0801 28.4191 40.0801C27.9896 40.0801 27.7749 40.3806 27.7749 40.7385Z" fill="#243947"/>
<path fill-rule="evenodd" clip-rule="evenodd" d="M24.3391 42.9429H24.926V41.626C24.9975 41.7405 25.1979 41.9982 25.656 41.9982C26.1283 41.9982 26.7581 41.6117 26.7581 40.7242C26.7581 39.8368 26.157 39.5076 25.656 39.5076C25.2552 39.5076 24.9832 39.7223 24.8973 39.8654V39.5791H24.3391V42.9429ZM24.9117 40.7385C24.9117 41.0678 25.0977 41.4256 25.5558 41.4256C26.0138 41.4256 26.1426 41.0248 26.1426 40.7529C26.1426 40.4809 25.9852 40.0801 25.5558 40.0801C25.1264 40.0801 24.9117 40.3807 24.9117 40.7385Z" fill="#243947"/>
<path d="M22.1629 39.5652H21.5618V41.1397C21.5618 41.6979 21.9482 42.0128 22.4635 42.0128C22.8758 42.0128 23.122 41.6979 23.1935 41.5405V41.9126H23.7375V39.5652H23.1506V40.9107C23.0647 41.2256 22.85 41.426 22.6067 41.426C22.3633 41.426 22.1629 41.2685 22.1629 40.9679V39.5652Z" fill="#243947"/>
<path fill-rule="evenodd" clip-rule="evenodd" d="M18.9001 41.9123V38.5343H20.2456C20.6894 38.5343 21.2476 38.8778 21.2476 39.5792C21.2476 40.2806 20.6894 40.6527 20.2456 40.6527H19.53V41.9123H18.9001ZM19.5443 40.0516V39.1355H20.217C20.489 39.1355 20.6178 39.3216 20.6178 39.5935C20.6178 39.8655 20.4747 40.0516 20.217 40.0516H19.5443Z" fill="#243947"/>
<path d="M17.3113 30.2755V31.9502L42.7038 31.9359V30.2755C42.7038 29.889 42.2887 29.2592 41.7019 29.2592C41.115 29.2592 18.943 29.2735 18.3848 29.2592C17.8266 29.2449 17.3113 29.7602 17.3113 30.2755Z" fill="#DFDEDF"/>
<path d="M19.3867 30.6188C19.3867 30.8638 19.1881 31.0625 18.943 31.0625C18.6979 31.0625 18.4993 30.8638 18.4993 30.6188C18.4993 30.3737 18.6979 30.175 18.943 30.175C19.1881 30.175 19.3867 30.3737 19.3867 30.6188Z" fill="#243947"/>
<path d="M22.3067 30.6188C22.3067 30.8638 22.1081 31.0625 21.863 31.0625C21.6179 31.0625 21.4193 30.8638 21.4193 30.6188C21.4193 30.3737 21.6179 30.175 21.863 30.175C22.1081 30.175 22.3067 30.3737 22.3067 30.6188Z" fill="#243947"/>
<path d="M20.8467 30.6188C20.8467 30.8638 20.6481 31.0625 20.403 31.0625C20.1579 31.0625 19.9593 30.8638 19.9593 30.6188C19.9593 30.3737 20.1579 30.175 20.403 30.175C20.6481 30.175 20.8467 30.3737 20.8467 30.6188Z" fill="#243947"/>
</svg>
