<svg width="14" height="14" viewBox="0 0 14 14" fill="none" xmlns="http://www.w3.org/2000/svg">
<path d="M7.00003 0C7.28976 0 7.54946 0.178418 7.65341 0.448794L9.22336 4.53224L13.3508 4.83227C13.632 4.85271 13.8734 5.03979 13.9634 5.30693C14.0534 5.57406 13.9744 5.86913 13.7629 6.05553L10.5737 8.8669L11.6324 13.1313C11.7019 13.4112 11.5926 13.705 11.3572 13.8715C11.1218 14.038 10.8083 14.0431 10.5677 13.8844L7.00003 11.5316L3.43248 13.8844C3.19176 14.0431 2.87833 14.038 2.6429 13.8715C2.40747 13.705 2.29824 13.4112 2.36772 13.1313L3.42645 8.8669L0.23715 6.05553C0.0256866 5.86912 -0.053337 5.57406 0.0366651 5.30693C0.126667 5.03979 0.368127 4.85271 0.649276 4.83227L4.7767 4.53224L6.34666 0.448794C6.45061 0.178418 6.71037 0 7.00003 0Z" fill="#333333"/>
</svg>
